<?xml version="1.0" encoding="UTF-8"?>
<!DOCTYPE svg PUBLIC "-//W3C//DTD SVG 1.1//EN" "http://www.w3.org/Graphics/SVG/1.1/DTD/svg11.dtd">
<svg version="1.1" xmlns="http://www.w3.org/2000/svg" xmlns:xlink="http://www.w3.org/1999/xlink" x="0" y="0" width="32" height="32" viewBox="0, 0, 250, 250">
  <g id="Calque_1">
    <path d="M234.4,154.75 C234.1,153.15 233.8,151.55 233.5,149.85 C233.1,147.95 232.8,146.05 232.4,144.15 C231.9,141.05 229.8,139.95 228.2,139.55 C225.9,138.95 223.5,138.35 220.7,137.55 C220.5,136.85 220.3,136.15 220.1,135.35 C219.9,134.65 219.8,133.95 219.6,133.25 C220.5,131.95 221.4,130.75 222.2,129.45 L223.4,127.75 C224.5,126.15 224.7,124.25 223.8,122.55 C222.9,120.85 221.3,119.95 219.4,119.95 C219.4,119.95 219.4,119.95 219.4,119.95 C219.1,119.95 218.8,119.95 218.5,119.95 L191.4,120.45 L191.4,120.45 C191.2,118.35 191.1,116.35 190.9,114.25 L190.9,114.15 C190.8,111.95 190.6,109.55 189.2,107.25 C189.9,106.85 190.7,106.25 191.1,105.35 C191.8,103.75 192.9,101.05 191.8,98.05 C190.5,94.65 189.1,91.15 187.7,87.65 C187.3,86.65 187.2,86.25 187.3,85.85 C187.5,85.05 187.6,84.25 187.6,83.55 C187.6,83.35 187.6,83.15 187.6,83.05 C187.8,81.15 186.9,79.35 185.3,78.35 L181.1,75.75 C178.5,74.15 175.9,72.55 173.4,70.95 C172.4,70.35 171.2,70.05 170.1,70.25 C166.7,70.75 163.3,71.15 160.2,71.75 C159.9,71.75 159.8,71.75 159.6,71.65 C151.1,66.45 142.6,61.35 134.6,56.55 C133.9,56.15 132.9,55.55 131.7,55.45 C129.4,55.15 127.1,54.85 124.8,54.55 C123.2,54.35 121.6,54.15 120,53.95 C115.3,49.05 110.4,43.65 105.4,38.35 C105.4,30.65 105.4,23.05 105.4,15.35 L105.4,9.35 C105.4,5.95 103.4,3.95 100,3.95 L98.8,3.95 C96.9,3.95 95,3.95 93.1,3.95 C92.2,3.95 91.3,4.05 90.5,4.35 C86.4,5.55 83.2,6.55 80.3,7.45 C79.4,7.75 78.5,8.25 77.6,8.85 C76.8,9.45 76.1,10.05 75.4,10.75 C75,11.05 74.7,11.35 74.3,11.65 C74,11.95 73.7,12.15 73.4,12.45 C72,13.75 70.7,14.75 69.2,15.25 C66.9,15.95 64.9,17.25 63.1,19.35 C62.8,19.65 62.6,19.95 62.3,20.25 C61.8,20.75 61.2,21.65 60.8,21.75 C60.4,21.95 59.2,21.85 58.4,21.75 C58.1,21.75 57.8,21.65 57.5,21.65 C55,21.45 53,22.25 51.4,23.95 C49.9,25.65 48,26.75 45.7,27.35 C45.2,27.05 44.7,26.95 44.4,26.85 C40.1,25.75 35.8,24.55 31.4,23.45 C30,23.05 28.5,23.35 27.3,24.15 C26.2,24.95 25.4,26.15 25.3,27.55 C25.2,28.55 25.4,29.55 25.9,30.75 C30,39.55 34.2,48.25 38.3,57.05 C37.6,58.15 37,59.15 36.5,60.15 C36,61.15 35.6,62.25 35.5,63.35 C35.3,65.05 35.1,66.65 34.9,68.35 C34.7,70.35 34.5,72.25 34.2,74.25 C33.9,76.85 33.7,79.55 35.1,82.45 C35.6,83.45 36,84.65 36.5,85.85 C36.7,86.35 36.9,86.85 37,87.35 C35.8,88.65 34.5,89.95 33.3,91.25 C32.1,92.55 30.9,93.85 29.6,95.15 C28,96.85 27.6,98.95 28.5,101.05 C28.5,101.15 28.6,101.15 28.6,101.25 C28.3,101.25 27.9,101.15 27.6,101.15 L22.3,101.15 C19.5,101.15 17.2,103.45 17.2,106.25 L17.2,107.25 C17.2,108.55 17.6,109.75 18.3,110.75 L18.6,111.15 L18.2,111.55 C17.6,112.15 17.3,112.85 17.3,113.65 C17.3,115.45 18.1,117.25 19.4,118.45 C20.6,119.55 22.2,120.25 23.8,120.25 L25.8,120.75 L26,122.15 C26.1,125.35 30.1,127.85 30.1,127.85 L32.1,129.05 C32.2,129.15 32.4,129.15 32.5,129.25 L33.5,129.65 C31.4,132.35 29.3,134.95 27.2,137.65 C26.2,138.95 25.3,140.95 26.6,143.65 C28.1,146.75 29.6,149.95 31.1,153.05 L31.7,154.25 C31.9,154.55 32,154.85 32,155.15 C32.4,157.15 32.9,159.15 33.3,161.15 C34.1,164.65 34.9,168.15 35.7,171.65 C36,173.05 36.8,174.05 37.3,174.55 C38.3,175.55 39.3,176.55 40.3,177.55 L43.1,180.25 L42.3,181.15 C40.1,183.65 40.7,185.95 41.9,187.45 C41.9,187.45 42,187.55 42,187.55 C41.9,187.65 41.9,187.75 41.7,187.95 C41.4,188.35 41.2,188.75 41.1,188.95 L41.1,189.05 C39.8,190.85 39.6,192.85 40.4,195.15 L40.8,196.15 C41.5,197.95 42.1,199.65 42.3,201.35 C42.7,204.05 43.7,206.55 45.4,209.15 C47.5,212.25 49.4,215.35 50.1,218.95 C50.3,219.95 50.6,220.95 50.9,221.85 C51,222.25 51.2,222.75 51.3,223.15 C51.5,223.85 51.7,224.55 51.9,225.35 C52.4,227.05 52.9,228.65 53.2,230.25 C53.6,232.65 54,235.25 54.3,237.65 C54.5,238.95 54.6,240.25 54.8,241.55 C55,243.25 55.9,244.65 57.2,245.35 C57.9,245.75 58.8,246.05 59.6,246.05 C60.3,246.05 61,245.95 61.7,245.65 C65,244.45 68.5,243.15 71.9,241.85 C72.8,241.55 73.7,240.95 74.4,240.25 C75.5,239.15 76.6,238.05 77.7,237.05 C78.7,236.05 79.7,235.05 80.7,234.15 C82.4,233.65 84,233.05 85.7,232.55 L87.7,231.95 C89.6,231.35 90.8,230.55 91.5,229.35 C92,229.75 92.5,230.05 93,230.45 C93.7,230.95 94.7,231.65 95.9,231.75 C97.2,231.95 98.6,232.05 99.9,232.05 L101,232.15 C104,232.35 107,232.55 109.9,232.75 C111.1,234.35 112.3,235.95 113.5,237.55 C114.2,238.45 114.9,239.35 115.6,240.25 C116.1,240.95 117.7,243.05 120.6,242.55 C123.4,242.05 124.3,239.75 124.6,239.05 L125.8,236.05 C126.5,234.35 127.1,232.65 127.7,230.95 C129.4,231.15 131,231.25 132.7,231.45 C134.5,231.65 136.4,231.75 138.2,231.95 L139,232.05 C140.6,232.15 142,232.35 143.2,232.85 C144.7,233.55 146.1,233.65 147.4,233.25 C148.7,232.75 149.7,231.65 150.4,230.05 C152.9,223.95 155.4,217.85 157.9,211.65 C158.2,210.85 158.4,209.95 158.5,209.15 C158.6,208.05 158.6,207.05 158.7,205.95 C158.7,205.15 158.8,204.35 158.9,203.45 C158.9,202.95 158.9,202.55 158.9,202.05 C158.9,201.55 158.9,200.65 159,200.45 C160.8,196.65 162.8,192.75 164.8,189.05 C165.2,188.25 165.6,187.55 166,186.75 C167.8,186.55 169.6,186.25 171.4,186.05 L175.9,185.45 C178.7,185.15 181.5,184.75 184.3,184.45 L185,184.35 C187.7,184.05 190.6,183.75 193.3,183.55 C195.4,183.45 197.6,183.45 199.8,183.55 L201.7,183.55 C201.9,183.55 202.2,183.55 202.3,183.65 C206,185.05 209.7,186.45 213.3,187.85 L213.6,187.95 C213.9,188.05 214.3,188.15 214.6,188.25 C214.6,188.65 214.6,189.05 214.6,189.35 C214.6,191.55 215.8,193.35 217.9,194.15 L218.6,194.45 C219.8,194.95 221.1,195.45 222.4,195.85 C224,196.35 225.6,196.15 226.9,195.15 C228.2,194.15 228.9,192.65 228.8,191.05 C228.8,190.55 228.7,190.05 228.7,189.55 C228.7,189.15 228.6,188.75 228.6,188.45 C228.6,187.95 228.5,187.45 228.5,186.95 C228.4,186.05 228.3,185.25 228.4,184.75 C229.7,179.15 231.1,173.45 232.4,167.95 C233.2,164.65 234,161.45 234.8,158.15 C234.6,157.15 234.6,155.95 234.4,154.75 z" fill="#000000"/>
    <path d="M222.1,183.35 C223.4,177.75 224.8,172.05 226.3,166.85 C227.1,163.55 227.9,160.35 228.7,157.05 L228.7,157.05 C228.8,156.85 228.8,156.55 228.7,156.05 C228.4,154.45 228.1,152.85 227.8,151.25 C227.4,149.45 227,147.55 226.7,145.65 C224.1,144.95 221.4,144.25 218.2,143.35 C216.9,142.95 215.7,141.75 215.3,140.45 C215,139.35 214.7,138.25 214.4,137.15 C214.2,136.35 214,135.55 213.8,134.75 C213.4,133.25 213.7,131.85 214.6,130.55 C215.5,129.15 216.5,127.85 217.4,126.45 L217.4,126.35 L189.8,126.85 C189.5,126.85 189.3,126.85 189,126.85 L188.6,126.85 C187,126.85 185.7,125.65 185.6,124.05 L185.4,121.25 C185.2,119.15 185,117.05 184.9,114.95 L184.9,114.85 C184.8,112.65 184.6,111.25 183.8,110.15 C183.2,109.35 182.7,108.55 182.3,107.75 C182.2,107.45 182,107.05 181.8,106.75 C181.3,105.85 181.3,104.65 181.8,103.75 C182.3,102.85 183.3,102.25 184.4,102.25 C184.7,102.25 185,102.25 185.3,102.25 C185.6,102.25 185.8,102.25 186,102.25 C186.3,101.35 186.4,100.75 186.2,100.35 C184.9,96.95 183.6,93.45 182.2,90.05 C181.8,88.95 181,86.85 181.6,84.45 C181.6,84.15 181.7,83.75 181.7,83.25 C181.7,83.25 181.7,83.25 181.7,83.25 L178.1,81.05 C175.7,79.55 173.2,77.95 170.7,76.45 C167.5,76.95 164.3,77.35 161.3,77.85 C160.6,77.95 160,77.95 159.4,77.85 L140.8,89.15 L129,95.35 C128.8,95.35 128.7,95.45 128.6,95.45 L124.8,96.35 C125.1,97.85 125.5,100.15 125.4,101.75 C125.6,103.15 130.5,109.75 134.9,115.15 C135.3,115.55 135.4,116.25 135.1,116.75 C134.8,117.25 134.3,117.55 133.7,117.55 L111.2,117.15 C111.2,117.35 111.2,117.55 111.2,117.75 C111.2,117.75 111.2,117.85 111.2,117.85 C111.2,118.15 111.2,118.45 111.2,118.75 C111.2,118.75 111.2,118.85 111.2,118.95 C111.2,119.15 111.2,119.45 111.2,119.75 C111.2,119.85 111.2,119.95 111.2,120.05 C111.2,120.25 111.2,120.55 111.2,120.75 C111.2,120.95 111.2,121.05 111.2,121.15 C111.2,121.35 111.2,121.65 111.2,121.85 C111.2,122.05 111.2,122.15 111.2,122.25 C111.2,122.45 111.2,122.75 111.2,122.95 C111.2,123.05 111.2,123.25 111.2,123.35 C111.2,123.55 111.2,123.75 111.2,123.95 C111.2,124.05 111.2,124.25 111.2,124.35 C111.2,124.55 111.2,124.75 111.2,124.95 C111.2,125.05 111.2,125.25 111.2,125.35 C111.2,125.55 111.2,125.75 111.2,125.95 C111.2,126.05 111.2,126.25 111.2,126.35 C111.2,126.45 111.2,126.65 111.2,126.85 C111.2,127.05 111.2,127.15 111.2,127.25 C111.1,127.45 111.1,127.55 111.1,127.75 C111.1,127.85 111.1,127.95 111.1,128.05 C111.1,128.25 111,128.35 111,128.55 C111,128.65 111,128.75 111,128.85 C111,128.95 110.9,129.15 110.9,129.25 C110.8,129.35 110.8,129.45 110.8,129.55 C110.8,129.65 110.7,129.85 110.7,129.95 C110.6,130.05 110.6,130.05 110.6,130.15 C110.5,130.35 110.5,130.45 110.4,130.65 C109.8,131.95 111.6,134.15 115,136.55 C117.1,138.05 118.1,140.55 117.6,143.05 C117.2,145.15 116.1,147.05 114.4,148.65 C112.7,150.35 111.9,151.85 111.9,153.25 C111.9,155.35 113.7,157.05 115.2,158.55 C116.1,159.45 116.9,160.25 117.3,161.05 C117.4,161.25 117.5,161.45 117.6,161.65 C117.7,161.75 117.7,161.75 117.7,161.85 C117.7,161.95 117.8,162.05 117.8,162.25 C117.8,162.35 117.8,162.45 117.8,162.55 C117.9,162.65 117.9,162.85 117.9,162.95 C117.9,163.05 117.9,163.15 117.9,163.25 C117.9,163.35 117.9,163.55 117.9,163.65 C117.9,163.85 117.9,163.95 117.9,164.05 C117.8,164.15 117.8,164.25 117.8,164.45 C117.7,164.55 117.7,164.75 117.7,164.85 C117.7,165.05 117.6,165.15 117.6,165.35 C117.6,165.45 117.5,165.65 117.5,165.75 C117.5,165.95 117.5,166.05 117.4,166.25 C117.4,166.35 117.3,166.55 117.3,166.65 C117.2,166.75 117.2,166.75 117.2,166.85 L123.4,173.45 L127.3,178.25 C127.4,178.35 127.5,178.45 127.5,178.65 L130.7,196.05 L153.6,196.75 C155.3,193.15 157.1,189.65 158.9,186.25 C159.5,185.15 160.1,184.15 160.6,183.05 C161.2,181.95 162.3,181.15 163.5,180.95 C165.6,180.65 167.8,180.45 170,180.15 L174.5,179.55 C177.3,179.25 180.1,178.85 182.9,178.55 L183.6,178.45 C186.4,178.15 189.4,177.75 192.3,177.65 C194.6,177.55 197,177.65 199.2,177.65 L201.1,177.65 C202,177.65 203,177.85 203.8,178.15 C207.5,179.55 211.2,180.95 214.9,182.35 L215.2,182.45 C215.4,182.55 215.6,182.55 215.8,182.65 C216.8,182.95 218.3,183.45 219.3,184.75 C220.3,186.05 220.2,187.65 220.1,188.65 C220.1,188.75 220.1,188.85 220.1,188.95 L220.2,188.95 C220.9,189.25 221.5,189.55 222.2,189.75 C222.1,189.35 222.1,189.05 222.1,188.75 C222.1,188.35 222,187.95 222,187.55 C221.9,186.25 221.8,184.85 222.1,183.35 z" fill="#D74A7D"/>
    <path d="M144.5,227.05 C146.9,221.15 149.3,215.25 152.1,209.15 C152.1,209.05 152.2,208.85 152.2,208.75 L141.5,208.85 C141.5,208.85 141.4,208.85 141.4,208.85 L121.3,206.95 L120.3,210.65 C120.2,210.85 120,211.15 119.7,211.25 C119.4,211.35 119.1,211.35 118.8,211.25 L111.6,207.75 L109.7,210.05 C109.4,210.35 109,210.55 108.6,210.35 L104.2,208.65 C103.9,211.05 103.3,216.35 102.6,220.45 C102.6,220.45 102.6,220.55 102.6,220.65 C102.5,220.85 102.5,221.15 102.4,221.45 C102.3,221.55 102.3,221.65 102.3,221.75 C102.2,222.05 102.2,222.35 102.1,222.65 C102.2,222.85 102.3,223.05 102.4,223.25 C102.4,223.35 102.5,223.35 102.5,223.45 C102.5,223.65 102.6,223.85 102.7,224.05 C102.7,224.05 102.7,224.15 102.7,224.15 C102.8,224.45 102.9,224.65 103,224.85 C103.1,224.95 103.1,224.95 103.1,225.05 C103.2,225.15 103.2,225.35 103.3,225.55 C103.3,225.55 103.3,225.65 103.3,225.65 C103.3,225.75 103.4,225.95 103.4,226.05 C105.8,226.25 108.1,226.45 110.5,226.55 C112,226.65 113.3,227.35 114.2,228.65 C115.4,230.35 116.7,232.05 118,233.75 C118.4,234.25 118.8,234.85 119.2,235.35 L119.8,233.75 C120.6,231.65 121.4,229.45 122.2,227.35 C122.9,225.55 124.4,224.55 126.4,224.75 C128.5,224.95 130.7,225.15 132.8,225.35 C134.6,225.55 136.5,225.65 138.3,225.85 L139,225.95 C140.7,226.15 142.6,226.25 144.5,227.05 z" fill="#000000"/>
    <path d="M101,225.95 C100.9,225.95 100.9,225.85 100.9,226.35 C100.8,226.15 100.7,225.85 100.6,225.65 C100.6,225.55 100.5,225.55 100.5,225.45 C100.5,225.25 100.4,225.15 100.3,224.95 C100.3,224.85 100.2,224.85 100.2,224.75 C100.1,224.55 100,224.35 99.9,224.15 C99.8,223.85 99.7,223.65 99.8,223.35 C99.9,223.05 99.9,222.75 100,222.45 C100,222.35 100,222.35 100,222.35 C100.1,222.05 100.1,221.75 100.2,221.35 C100.2,221.35 100.2,221.25 100.2,221.25 C100.3,220.85 100.3,220.45 100.4,220.05 C100.4,220.05 100.4,219.95 100.4,219.85 C100.5,219.45 100.5,219.15 100.6,218.75 C100.6,218.65 100.6,218.65 100.6,218.55 C100.5,218.45 100.5,218.25 100.4,218.15 C100.3,217.95 100.2,217.85 100.1,217.65 C100,217.45 99.9,217.25 99.8,217.05 C99.7,216.85 99.6,216.65 99.5,216.45 C99.4,216.25 99.3,215.95 99.2,215.75 C99.2,215.55 99.1,215.35 99,215.15 C98.9,214.95 98.8,214.65 98.7,214.45 C98.6,214.25 98.6,214.05 98.5,213.85 C98.4,213.55 98.4,213.35 98.3,213.05 C98.2,212.75 98.2,212.55 98.1,212.35 C98,212.15 98,211.85 97.9,211.55 C97.9,211.25 97.8,211.05 97.8,210.85 C97.8,210.55 97.7,210.25 97.7,209.95 C97.6,209.75 97.6,209.55 97.6,209.35 C97.6,208.85 97.6,208.35 97.6,207.85 C97.7,202.55 98.9,200.15 99.6,199.15 C98.9,196.45 97.8,191.35 100.1,190.15 C101.7,189.35 107,186.25 108.9,185.15 C108.2,182.35 107.2,179.85 106.6,179.45 C104.7,179.75 99.7,177.65 97.3,175.35 C96,174.15 95.5,172.95 95.7,171.85 C95.9,170.65 95.3,168.95 94.6,166.95 C94,165.05 93.2,162.95 93,160.65 C93,160.25 93.1,159.95 93.4,159.75 C93.6,159.65 93.7,159.65 93.9,159.55 C94,159.45 94,159.45 94.1,159.45 C94.3,159.45 94.4,159.35 94.5,159.35 C94.6,159.25 94.7,159.25 94.9,159.25 C94.9,159.25 95,159.25 95.1,159.25 C95.3,159.25 95.5,159.25 95.7,159.25 C95.8,159.25 95.9,159.25 96,159.25 C96.1,159.25 96.1,159.25 96.2,159.25 C96.2,159.15 96.2,159.15 96.1,159.05 C96,158.95 96,158.95 95.9,158.85 C95.8,158.75 95.7,158.65 95.6,158.55 C95.5,158.55 95.4,158.45 95.3,158.35 C95.2,158.25 95.1,158.15 95,158.05 C94.9,157.95 94.8,157.85 94.7,157.75 C94.6,157.75 94.5,157.65 94.4,157.55 C94.3,157.45 94.1,157.35 94,157.25 C94,157.15 93.9,157.15 93.8,157.05 C93.6,156.95 93.5,156.75 93.3,156.65 C93.3,156.65 93.2,156.55 93.2,156.55 C92.5,156.05 91.8,155.55 91.2,155.05 C89.5,153.85 88.4,153.05 87.9,152.45 C87.3,152.25 84.9,152.65 82.4,153.35 C82,153.45 81.7,153.55 81.3,153.65 C81.1,153.95 80.6,154.45 80,155.05 C79.6,155.55 79.2,156.05 78.8,156.55 C78.7,156.65 78.7,156.65 78.6,156.75 C78.5,156.85 78.4,157.05 78.3,157.15 C78.2,157.25 78.1,157.45 78,157.55 C77.9,157.65 77.9,157.75 77.8,157.85 C77.7,157.95 77.7,158.05 77.6,158.15 C77.5,158.35 77.5,158.45 77.4,158.55 C77.4,158.65 77.3,158.65 77.3,158.75 C77.2,158.95 77.2,159.05 77.1,159.25 C77,159.25 77,159.35 77,159.35 C77,159.55 76.9,159.65 76.9,159.75 C76.9,159.75 76.9,159.85 76.9,159.85 C76.8,159.95 76.8,160.15 76.8,160.25 C76.7,162.25 80.2,165.15 82.6,166.05 C82.8,166.05 83,166.15 83.1,166.15 C86.2,166.95 88.3,173.95 88.7,175.35 C88.8,175.55 88.7,175.95 88.6,176.15 C88.5,176.35 88.2,176.55 87.9,176.55 L81.9,177.05 L63.6,186.15 C63.3,186.25 63,186.45 62.7,186.55 C62.6,186.55 62.5,186.65 62.4,186.65 C62.1,186.75 61.9,186.75 61.7,186.85 C61.6,186.85 61.4,186.95 61.3,186.95 C61.1,186.95 60.9,187.05 60.7,187.05 C60.6,187.05 60.4,187.05 60.3,187.05 C60.1,187.05 59.8,187.05 59.6,187.05 C59.5,187.05 59.4,187.05 59.3,187.05 C59.2,187.05 59.2,187.05 59.2,187.05 C58.8,187.05 58.4,187.05 58,186.95 C57.9,186.95 57.8,186.95 57.7,186.95 C57.3,186.85 56.9,186.75 56.5,186.65 L47.8,183.75 L47,184.65 C47.9,186.25 48.4,188.65 46.2,191.55 L46.2,191.65 C46.1,191.85 46,192.15 45.7,192.55 C45.6,192.65 45.6,192.65 45.6,192.65 C45.6,192.65 45.6,192.75 45.7,193.15 L46.1,194.15 C46.8,196.15 47.6,198.25 47.9,200.55 C48.1,202.35 48.8,203.95 50,205.75 C52.3,209.25 54.7,213.05 55.6,217.75 C55.7,218.45 56,219.15 56.2,219.95 C56.4,220.45 56.6,220.95 56.7,221.45 C56.9,222.15 57.1,222.85 57.3,223.55 C57.8,225.25 58.4,227.15 58.7,229.05 C59.2,231.65 59.5,234.25 59.8,236.75 C60,237.75 60.1,238.65 60.2,239.55 C63.2,238.45 66.3,237.35 69.3,236.15 C69.4,236.15 69.6,236.05 69.8,235.85 C70.9,234.75 71.9,233.75 73,232.65 C74,231.65 75,230.65 76,229.65 C76.7,229.05 77.5,228.55 78.4,228.25 C80.1,227.75 81.8,227.15 83.5,226.65 L85.5,226.05 C85.5,226.05 85.6,226.05 85.6,226.05 C85.6,226.05 85.6,226.05 85.6,225.95 C85.6,225.55 85.5,225.05 85.5,224.55 L85.4,223.75 C85.3,222.55 85.9,221.45 86.9,220.85 C88,220.25 89.3,220.35 90.2,221.05 L91.9,222.35 C93.3,223.45 94.6,224.45 96,225.45 C96.2,225.55 96.2,225.65 96.3,225.65 C97.4,225.85 98.5,225.85 99.7,225.95 L100.9,226.05 C100.9,226.05 101,226.05 101,225.95 C101,226.05 101,226.05 101,225.95 z" fill="#FFFFFF"/>
    <path d="M41.4,170.15 C41.4,170.15 41.4,170.25 41.3,170.25 C42.2,171.15 43.1,172.05 44.1,173.05 L48.9,177.75 C50,178.85 50,180.65 49,181.85 L48.9,181.95 L56.8,184.55 C58.7,185.05 60.7,184.95 62.4,184.05 L80.7,174.95 C81,174.85 81.2,174.75 81.5,174.75 L86.3,174.35 C85.2,171.25 83.6,168.05 82.5,167.75 C79.7,166.95 74.5,163.15 74.8,159.65 C74.8,158.75 75.2,157.75 75.9,156.65 C75.9,156.55 76,156.55 76,156.45 C76,156.25 76.1,156.15 76.2,156.05 C76.3,155.85 76.4,155.75 76.5,155.55 C76.5,155.45 76.6,155.45 76.6,155.35 C77,154.75 77.5,154.25 77.9,153.75 C77.9,153.65 77.8,153.45 77.7,153.25 C77.7,153.05 77.6,152.95 77.5,152.75 C77.4,152.45 77.2,152.15 77,151.85 C76.9,151.75 76.9,151.65 76.8,151.55 C76.5,151.15 76.3,150.75 76,150.35 C76,150.25 75.9,150.15 75.8,150.05 C75.6,149.75 75.4,149.55 75.2,149.25 C75,149.15 74.9,148.95 74.8,148.85 C74.6,148.65 74.5,148.45 74.3,148.25 C74.1,148.15 74,147.95 73.9,147.85 C73.7,147.65 73.5,147.55 73.4,147.35 C73.3,147.15 73.2,147.05 73.1,146.95 C73,146.85 72.8,146.65 72.7,146.55 C72.6,146.45 72.5,146.35 72.4,146.25 C72.4,146.25 72.4,146.25 72.4,146.25 L72.3,146.35 C71.9,146.55 71.4,146.45 71.1,146.05 C71.1,145.95 69.4,143.95 67.1,144.35 C64.9,144.75 62.9,146.55 61.4,148.05 C60.4,149.05 59.4,149.95 58.5,150.35 C58.4,150.35 58.4,150.35 58.4,150.35 C58.2,150.35 58.1,150.45 57.9,150.45 C57.9,150.45 57.8,150.45 57.8,150.45 C57.7,150.45 57.5,150.45 57.4,150.45 C57.3,150.35 57.3,150.35 57.2,150.35 C57.1,150.35 56.9,150.35 56.8,150.25 C48.8,146.75 44.5,150.25 43,151.95 C42.9,151.95 42.9,152.05 42.9,152.05 C42.9,152.05 42.9,152.05 42.9,152.05 C42.9,152.05 42.9,152.05 42.9,152.05 C42.8,152.05 42.8,152.05 42.8,152.05 C42.7,152.15 42.7,152.15 42.7,152.15 C42.6,152.25 42.6,152.25 42.6,152.25 C42.6,152.35 42.5,152.35 42.5,152.35 C42.5,152.45 42.4,152.45 42.4,152.45 C42.4,152.55 42.3,152.55 42.3,152.55 C42.3,152.55 42.2,152.65 42.2,152.65 C42.2,152.65 42.1,152.75 42.1,152.75 C42.1,152.75 42.1,152.85 42,152.85 C42,152.85 42,152.95 41.9,152.95 C41.8,152.95 41.8,153.05 41.7,153.05 C41.6,153.05 41.6,153.15 41.5,153.15 C41.5,153.15 41.4,153.25 41.3,153.25 C41.2,153.25 41.2,153.35 41.1,153.35 C41,153.35 40.9,153.45 40.8,153.45 C40.7,153.45 40.7,153.55 40.6,153.55 C40.5,153.65 40.4,153.65 40.3,153.75 C40.2,153.75 40.1,153.85 40,153.85 C39.9,153.95 39.7,153.95 39.6,154.05 C39.5,154.05 39.4,154.15 39.3,154.15 C39.2,154.25 39.1,154.25 38.9,154.35 C38.8,154.35 38.7,154.45 38.6,154.45 C38.4,154.55 38.3,154.55 38.1,154.65 C38,154.75 38,154.75 37.9,154.75 C38.3,156.45 38.6,158.05 39,159.75 C39.8,163.25 40.6,166.65 41.4,170.15 z" fill="#D74A7D"/>
    <path d="M39.9,130.95 C37.3,134.35 34.6,137.75 32,141.45 C33.5,144.55 35,147.65 36.4,150.75 L37,151.95 C37.2,152.35 37.4,152.75 37.5,153.15 C37.7,153.05 37.9,153.05 38,152.95 C38,152.85 38.1,152.85 38.1,152.85 C38.3,152.75 38.5,152.75 38.6,152.65 C38.6,152.55 38.7,152.55 38.7,152.55 C38.8,152.45 39,152.45 39.1,152.35 C39.1,152.25 39.2,152.25 39.2,152.25 C39.3,152.15 39.4,152.05 39.5,152.05 C39.5,151.95 39.6,151.95 39.6,151.95 C39.7,151.95 39.8,151.85 39.9,151.85 C39.9,151.75 40,151.75 40,151.75 C40.1,151.75 40.1,151.65 40.2,151.65 C40.2,151.55 40.3,151.55 40.3,151.55 C40.4,151.55 40.4,151.45 40.5,151.45 C40.5,151.45 40.6,151.45 40.6,151.45 C40.7,151.45 40.8,151.35 40.8,151.35 C40.9,151.35 40.9,151.35 40.9,151.35 C40.9,151.35 41,151.25 41,151.25 C41,151.25 41,151.25 41,151.25 C41,151.25 41.1,151.15 41.1,151.15 C41.1,151.15 41.1,151.15 41.1,151.15 C41.1,151.05 41.2,151.05 41.2,151.05 C41.2,151.05 41.2,151.05 41.2,151.05 C41.3,150.95 41.3,150.95 41.3,150.95 C41.3,150.95 41.3,150.95 41.3,150.95 C41.4,150.85 41.4,150.85 41.4,150.85 C43.1,148.85 48.3,144.55 57.5,148.65 C57.6,148.65 57.7,148.65 57.8,148.55 C58.4,148.25 59.4,147.35 60,146.75 C61.7,145.15 63.9,143.05 66.8,142.55 C69.4,142.15 71.3,143.55 72.2,144.35 L74.5,143.25 L71.9,136.75 C71.4,135.55 71.6,134.15 72.4,133.05 L73.9,130.95 C74.5,130.15 74.6,129.25 74.3,128.45 C72.9,124.65 71.4,119.65 71.9,117.35 C72,117.15 72,116.85 72.1,116.65 C72.1,116.65 72.2,116.55 72.2,116.45 C72.3,116.25 72.3,116.15 72.4,115.95 C72.4,115.85 72.5,115.75 72.5,115.65 C72.5,115.45 72.6,115.35 72.7,115.15 C72.7,115.05 72.8,114.95 72.8,114.85 C72.9,114.65 73,114.55 73.1,114.35 C73.1,114.25 73.2,114.25 73.2,114.15 C73.3,113.95 73.4,113.75 73.5,113.55 C73.5,113.55 73.6,113.45 73.6,113.45 C73.7,113.15 73.9,112.95 74.1,112.65 C71.4,110.05 69.3,108.55 69.3,108.55 C69.1,108.45 69,108.25 68.9,108.15 C68.6,107.85 63.2,100.05 61.4,92.85 C59.6,85.55 61.8,78.25 61.9,77.95 C61.9,77.85 62,77.75 62.2,77.65 L64.1,74.35 C63.7,72.95 63.2,70.05 64.9,67.85 C66.4,65.85 69.8,62.25 70.7,61.35 C71,60.55 71.9,57.55 71.2,54.55 L55.3,46.75 C54.7,46.85 53.2,47.35 52.1,48.15 C52.1,48.15 52.1,48.15 52.1,48.15 C51,49.05 48,52.65 46.6,54.55 C46.4,54.75 46.3,54.95 46.2,55.05 C46.1,55.15 46,55.15 45.9,55.25 L44.4,56.25 C44.7,57.45 44.5,58.55 43.8,59.65 C43,60.95 42.3,61.95 41.8,62.95 C41.6,63.25 41.4,63.65 41.4,64.05 C41.2,65.65 41,67.35 40.8,68.95 C40.6,70.95 40.4,72.95 40.1,74.95 C39.9,76.95 39.8,78.35 40.5,79.75 C41.1,81.05 41.6,82.35 42.1,83.65 C42.4,84.35 42.7,85.15 43,85.85 C43.5,87.05 43.8,88.85 42.1,90.55 C40.6,92.05 39.1,93.65 37.7,95.15 C36.5,96.45 35.4,97.65 34.2,98.85 C35,100.85 35.7,102.75 36.3,104.35 C36.6,105.05 36.7,105.95 36.5,106.85 C36.3,107.75 35.7,108.55 34.9,108.95 C34,109.35 33,109.35 32.2,108.95 L28.6,107.25 C28.2,107.15 27.9,107.05 27.5,107.05 L23.1,107.05 L23.1,107.15 C23.1,107.25 23.2,107.35 23.2,107.35 L24,108.45 C25.2,110.25 25.1,112.55 23.7,114.25 C23.8,114.25 23.8,114.25 23.9,114.25 C24.2,114.25 24.5,114.25 24.8,114.35 L28.1,115.15 C29.5,115.55 30.7,116.55 31.3,117.85 C31.4,118.05 31.5,118.35 31.5,118.65 L31.9,121.55 C32.1,121.95 32.7,122.55 33.1,122.75 L34.9,123.85 L39.3,125.65 C40.1,126.05 40.8,126.75 41,127.65 C41.3,128.55 41.1,129.55 40.5,130.25 L39.9,130.95 z" fill="#FFFFFF"/>
    <path d="M66.9,24.05 C65.9,25.15 64.8,26.55 63.2,27.35 C61.4,28.05 59.4,27.85 57.9,27.75 C57.6,27.65 57.4,27.65 57.1,27.65 C56.3,27.55 56.1,27.75 55.8,28.05 C53.4,30.55 50.4,32.35 46.9,33.25 C46.8,33.35 46.8,33.35 46.7,33.35 C44.7,34.05 43.3,33.45 42.5,32.65 C39,31.75 35.6,30.85 32.1,29.95 C35.9,38.15 39.8,46.25 43.7,54.45 L44.8,53.75 C45.6,52.75 49.4,47.85 51,46.65 C52.8,45.25 55.2,44.75 55.3,44.75 C55.5,44.75 55.7,44.75 55.9,44.85 L71.5,52.55 C71.7,48.95 72.4,41.85 75.1,39.85 C77.6,37.95 81,36.15 82,35.65 C82.5,34.95 84,32.95 85,30.75 C86.5,27.65 91.5,22.85 92.1,22.35 C92.1,22.25 92.2,22.25 92.2,22.25 C92.3,22.05 95.8,19.35 99.3,17.75 C99.3,16.95 99.3,16.25 99.3,15.45 L99.3,10.05 L98.7,10.05 C96.9,10.05 95,10.05 93.1,10.05 C92.7,10.05 92.4,10.05 92.1,10.15 C88,11.35 84.9,12.25 82,13.15 C81.7,13.15 81.5,13.35 81.2,13.55 C80.5,14.15 79.9,14.65 79.2,15.25 C78.9,15.55 78.5,15.95 78.1,16.25 C77.8,16.55 77.5,16.75 77.2,17.05 C75.5,18.55 73.6,20.25 70.9,21.05 C69.7,21.35 68.6,22.15 67.5,23.35 C67.3,23.55 67.1,23.85 66.9,24.05 z" fill="#D74A7D"/>
    <path d="M115.5,161.95 C115.3,161.55 114.9,161.05 114.5,160.45 C114.4,160.35 114.2,160.15 114,159.95 C112.3,158.25 110.2,156.15 110.2,153.25 C110.2,151.25 111.2,149.25 113.3,147.25 C114.7,145.95 115.6,144.35 116,142.65 C116.4,140.95 115.7,139.15 114.2,138.15 C109.7,134.95 107.9,132.15 108.9,129.85 C108.9,129.75 109,129.55 109,129.45 C109,129.45 109,129.35 109,129.35 C109,129.25 109.1,129.15 109.1,129.05 C109.1,128.95 109.1,128.95 109.1,128.85 C109.2,128.75 109.2,128.65 109.2,128.55 C109.2,128.45 109.2,128.35 109.2,128.25 C109.3,128.15 109.3,128.05 109.3,127.95 C109.3,127.85 109.3,127.75 109.3,127.65 C109.3,127.45 109.3,127.35 109.3,127.25 C109.3,127.15 109.3,127.05 109.3,126.95 C109.3,126.85 109.3,126.65 109.3,126.55 C109.3,126.35 109.3,126.25 109.3,126.15 C109.3,126.05 109.3,125.85 109.3,125.75 C109.3,125.65 109.3,125.45 109.3,125.35 C109.3,125.15 109.3,125.05 109.3,124.85 C109.3,124.75 109.3,124.55 109.3,124.45 C109.3,124.25 109.3,124.15 109.3,123.95 C109.3,123.85 109.3,123.65 109.3,123.55 C109.3,123.35 109.3,123.15 109.3,122.95 C109.3,122.85 109.3,122.65 109.3,122.55 C109.3,122.35 109.3,122.15 109.3,121.95 C109.3,121.75 109.3,121.65 109.3,121.45 C109.3,121.25 109.3,121.05 109.3,120.85 C109.3,120.65 109.3,120.55 109.3,120.35 C109.3,120.15 109.3,119.95 109.3,119.75 C109.3,119.55 109.3,119.45 109.3,119.25 C109.3,119.05 109.3,118.75 109.3,118.55 C109.3,118.35 109.3,118.25 109.3,118.05 C109.3,117.85 109.3,117.55 109.3,117.35 C109.3,117.25 109.3,117.25 109.3,117.15 C106.4,117.35 103.8,117.95 103.2,118.45 C101.2,124.65 97.6,126.45 94.9,126.75 C94.5,126.85 93.9,126.85 93.4,126.85 C89.6,126.85 84.4,125.15 79,118.15 C77.8,116.65 76.6,115.25 75.4,114.05 C75.2,114.25 75,114.55 74.9,114.75 C74.9,114.75 74.9,114.75 74.9,114.75 C74.7,115.05 74.6,115.35 74.4,115.65 C74.4,115.75 74.3,115.75 74.3,115.85 C74.1,116.15 74,116.35 73.9,116.65 C73.8,116.75 73.8,116.75 73.8,116.85 C73.7,117.15 73.6,117.45 73.6,117.65 C73.3,119.05 74.2,122.75 75.9,127.65 C76.4,129.15 76.2,130.75 75.3,131.95 L73.8,134.05 C73.4,134.55 73.4,135.25 73.6,135.85 L76.6,143.15 C76.8,143.65 76.6,144.25 76.1,144.45 L74.4,145.35 C74.5,145.45 74.6,145.55 74.7,145.65 C74.8,145.75 74.8,145.75 74.9,145.85 C75.1,146.15 75.4,146.45 75.7,146.75 C75.8,146.85 75.8,146.85 75.9,146.95 C76.1,147.25 76.4,147.55 76.6,147.85 C76.6,147.95 76.7,148.05 76.8,148.15 C77.1,148.55 77.4,148.95 77.7,149.35 C77.8,149.35 77.8,149.45 77.8,149.45 C78.1,149.75 78.4,150.15 78.6,150.55 C78.7,150.65 78.7,150.75 78.8,150.85 C79.1,151.25 79.3,151.65 79.5,152.05 C79.5,152.15 79.6,152.15 79.6,152.25 C79.6,152.35 79.6,152.35 79.6,152.35 C79.8,152.15 79.9,152.05 80,151.95 C80.1,151.85 80.1,151.85 80.1,151.85 C80.2,151.75 80.4,151.65 80.5,151.65 C83.9,150.55 88.2,149.55 89.4,150.95 C89.6,151.25 90.5,151.85 91.4,152.55 C91.7,152.75 92.1,153.05 92.4,153.25 C94.5,154.75 96.8,156.45 98,157.85 C98.1,157.95 98.2,158.15 98.3,158.25 C98.3,158.35 98.4,158.35 98.4,158.45 C98.5,158.55 98.5,158.65 98.6,158.75 C98.6,158.85 98.7,158.85 98.7,158.95 C98.8,159.05 98.8,159.15 98.9,159.25 C99,159.35 99,159.45 99.1,159.55 C99.1,159.65 99.2,159.65 99.2,159.75 C99.3,159.75 99.4,159.85 99.5,159.85 C99.6,159.95 99.7,159.95 99.8,160.05 L104.4,164.25 C104.5,164.15 104.6,164.05 104.8,163.95 C104.8,163.85 104.9,163.85 104.9,163.85 C105.1,163.75 105.2,163.65 105.4,163.55 C105.4,163.45 105.5,163.45 105.5,163.45 C105.7,163.35 105.8,163.25 106,163.15 C106,163.05 106.1,163.05 106.1,163.05 C106.3,162.95 106.5,162.85 106.7,162.75 C106.7,162.65 106.8,162.65 106.8,162.65 C107,162.55 107.2,162.45 107.4,162.35 C107.5,162.35 107.5,162.35 107.5,162.35 C107.7,162.25 107.9,162.25 108.1,162.15 C108.1,162.15 108.2,162.15 108.2,162.15 C108.4,162.15 108.6,162.05 108.8,162.05 C108.8,162.05 108.9,162.05 108.9,162.05 C109,162.05 109.2,162.05 109.4,162.05 C109.4,162.05 109.4,162.05 109.4,162.05 C109.4,162.05 109.4,162.05 109.4,162.05 C109.6,162.05 109.7,162.05 109.9,162.05 C109.9,162.05 110,162.05 110,162.05 C110.2,162.15 110.3,162.15 110.5,162.25 C112.2,163.05 114.9,164.65 115,164.75 C115.1,164.85 115.1,164.85 115.2,164.95 L115.5,165.25 C115.5,165.15 115.5,165.15 115.5,165.15 C115.6,164.85 115.7,164.65 115.7,164.35 C115.7,164.25 115.7,164.25 115.7,164.15 C115.8,163.85 115.8,163.55 115.8,163.35 C115.8,163.35 115.8,163.35 115.8,163.35 C115.8,163.15 115.7,162.95 115.7,162.75 C115.7,162.65 115.7,162.55 115.7,162.55 C115.6,162.35 115.6,162.15 115.5,161.95 z" fill="#FFFFFF"/>
    <path d="M152.3,201.95 C152.3,200.95 152.3,199.85 152.8,198.75 L129.9,198.05 C129.4,198.05 129,197.75 128.9,197.25 L125.6,179.35 L121.9,174.85 L115.3,167.85 C115.3,167.85 115.3,167.85 115.3,167.85 L114,166.45 C113.6,166.25 112.3,165.45 111,164.75 C110.6,164.55 110.2,164.35 109.8,164.15 C109.2,163.85 106.7,164.95 105,166.25 C104.6,166.55 104.1,166.45 103.7,166.15 L98.7,161.55 C98.6,161.55 98.5,161.55 98.3,161.45 C98.3,161.45 98.3,161.45 98.3,161.45 C97.7,161.25 97.1,161.15 96.6,161.05 C96.5,161.05 96.5,161.05 96.4,161.05 C96.2,160.95 96,160.95 95.8,160.95 C95.8,160.95 95.7,160.95 95.7,160.95 C95.5,160.95 95.3,160.95 95.2,160.95 C95.4,162.65 96,164.35 96.6,165.95 C97.3,167.85 98,169.65 97.9,171.25 C97.9,171.45 97.8,171.75 97.8,171.95 C97.7,172.35 98.1,172.95 98.7,173.55 C100.9,175.75 105.5,177.35 106.3,177.15 C106.7,177.05 107.1,177.05 107.7,177.35 C109.5,178.45 110.8,183.55 111.1,185.05 C111.2,185.45 111,185.95 110.6,186.15 C110.3,186.35 103,190.55 101,191.55 C100.4,191.95 100.6,195.25 101.6,198.75 C101.7,199.15 101.6,199.45 101.3,199.75 C101.3,199.75 99.7,201.55 99.5,207.55 C99.5,207.95 99.5,208.35 99.5,208.75 C99.5,208.85 99.5,208.95 99.5,209.05 C99.6,209.45 99.6,209.85 99.7,210.25 C99.7,210.25 99.7,210.25 99.7,210.25 C99.8,210.65 99.9,211.05 100,211.45 C100,211.55 100.1,211.65 100.1,211.75 C100.2,212.15 100.3,212.55 100.4,212.95 C100.4,212.95 100.4,212.95 100.4,212.95 C100.5,213.35 100.7,213.65 100.8,214.05 C100.8,214.15 100.9,214.25 100.9,214.35 C100.9,214.35 101,214.45 101,214.55 C101.5,210.85 101.8,207.55 101.8,207.45 C101.9,207.05 102,206.85 102.3,206.65 C102.6,206.45 102.9,206.45 103.2,206.55 L108.2,208.45 L110.2,206.05 C110.5,205.65 111,205.55 111.4,205.75 L118.2,209.15 L119.1,205.75 C119.3,205.35 119.7,204.95 120.2,205.05 L141.1,206.95 L152,206.85 C152,206.45 152.1,205.95 152.1,205.55 C152.2,204.65 152.2,203.85 152.3,202.95 C152.3,202.65 152.3,202.25 152.3,201.95 z" fill="#FFFFFF"/>
  </g>
</svg>
