<svg height="40" viewBox="0 0 1000 1000" width="40" xmlns="http://www.w3.org/2000/svg"><path d="m539.13 72.56c-.58.58-4.48 1.56-8.57 1.95-4.28.58-10.13 1.75-13.44 2.92-3.12.97-10.71 2.73-16.75 3.9-6.23 1.17-12.66 3.9-14.41 5.84-1.95 2.14-4.48 3.9-5.84 3.9s-2.14 5.65-2.34 16.94c-.19 9.54-.78 22.2-1.56 28.63-1.17 10.13-.78 11.88 3.31 16.17l4.48 4.87-6.04-1.17c-5.45-1.17-6.43-.78-7.79 3.51-1.95 5.65-20.65 20.26-28.05 21.81-2.73.58-8.76 2.34-13.44 3.9-4.87 1.56-10.52 2.73-12.66 2.73-2.34 0-11.1 3.7-19.87 8.18-13.83 7.2-15.97 9.15-19.09 16.55-4.48 10.71-2.34 13.83 10.13 14.61l9.15.78-8.18 1.56c-4.48.97-11.1 3.7-14.61 6.23-9.54 7.21-19.67 9.35-26.68 5.84-2.92-1.56-12.46-3.51-20.84-4.29-8.57-.58-16.94-1.95-18.7-2.92-5.06-2.73-13.24-2.14-14.41.97-.58 1.56-2.34 2.34-3.9 1.75-1.56-.58-2.14-1.75-1.56-2.92.58-.97-1.17-5.26-4.09-9.54-5.06-7.01-5.26-7.98-2.34-11.1 4.48-5.06.78-10.13-7.4-10.13-3.51 0-6.82.78-7.21 1.75-1.36 3.7-19.67 1.95-22.2-1.95-1.36-2.34-8.57-2.14-8.57.2 0 .97.78 1.95 1.95 1.95 3.51 0 6.23 7.79 3.7 10.91-1.75 2.14-1.75 3.51-.2 5.07 1.36 1.36 2.34 4.09 2.34 6.04 0 2.14 2.73 6.43 5.84 9.54 3.31 2.92 5.84 6.82 5.84 8.37s1.17 2.92 2.53 2.92c1.95 0 2.34 2.73 1.95 9.74-.39 5.65 0 9.74 1.17 9.74s1.56 3.12.97 7.21c-.58 4.09-1.17 9.93-.97 13.05 0 6.04 6.82 14.8 11.49 14.8 5.84 0 .39 2.53-6.82 3.12-4.09.39-10.32 1.36-13.83 1.95-7.01 1.36-12.47-1.75-10.71-6.04 1.36-3.7-7.4-1.95-9.54 1.75-.97 1.75-2.92 2.53-4.67 1.75-1.56-.58-4.09.58-5.65 2.53-2.73 3.31-3.12 3.31-5.45.58-1.17-1.75-3.51-2.73-4.87-2.34-1.56.58-1.95-.2-1.17-2.73 1.17-2.92.78-3.12-1.36-1.17-1.36 1.36-4.09 2.53-6.04 2.53s-3.51.78-3.51 1.95c0 .97-1.17 1.95-2.53 1.95-1.56 0-4.68 2.14-7.21 4.87l-4.48 4.87-4.67-5.06c-2.34-2.73-4.48-5.65-4.48-6.43s-2.14-3.51-4.87-6.04c-2.53-2.34-4.29-5.06-3.9-5.84.58-.78-.97-1.95-3.12-2.53-2.34-.59-3.51-1.95-2.73-3.12.58-1.17-.19-2.14-1.75-2.14-1.75 0-3.12-.78-3.12-1.56 0-2.14-9.35-1.36-15.97 1.36-2.92 1.17-6.82 1.56-8.37.97-4.48-1.75-9.35 2.92-6.62 6.23 1.56 1.95 1.56 2.73 0 2.73-1.17 0-1.95 1.17-1.75 2.34.39 1.36-.78 2.14-2.34 1.95-12.85-3.12-15.19-2.73-15.97 1.56l-.58 4.29-5.26-4.87c-2.92-2.73-5.84-4.09-6.43-3.12-.78.97-3.7 1.75-6.82 1.75-2.92 0-5.84 1.17-6.43 2.34-.58 1.95-1.75 1.95-4.48.39-5.65-3.31-31.75 9.15-32.33 15.39-.97 15.39-1.17 14.8 6.23 14.22 3.7-.39 10.13-2.14 14.41-3.9 9.74-4.09 10.32-3.9 4.87.97l-4.67 3.9 5.45-1.17c3.7-.78 5.06-.39 4.29.97-.58.97.2 1.95 1.75 1.95 1.75 0 3.12.78 3.12 1.56 0 .97-4.87 1.56-10.71 1.36-6.04 0-11.88.58-13.24 1.36-1.75 1.17-1.75 1.56.19 1.56 1.17 0 2.34 1.95 2.34 4.29 0 3.9.19 4.09 2.53.78 3.12-4.29 12.27-2.53 15.19 2.92 2.14 4.29.78 7.99-2.73 7.21-4.29-.58-22.79 2.73-23.76 4.29-.58.97 1.95 2.34 5.65 3.12 10.71 1.95 18.11 10.71 16.94 19.87-.39 1.75 1.56 2.34 6.04 1.95 5.06-.39 6.23-1.36 5.84-4.29-.39-2.14.19-2.92 1.36-2.14 1.17.58 2.14.19 2.14-.78 0-1.36 1.36-1.36 3.9.2 3.31 2.14 4.29 1.95 6.04-.39 1.56-2.53 2.53-1.95 6.43 2.73 3.31 4.09 5.84 5.26 8.76 4.48 2.34-.59 4.67-.2 5.26.78.58.97 3.31 1.75 5.84 1.75 2.73 0 6.43 1.75 8.37 4.09l3.12 3.9 4.67-3.9c5.26-4.67 7.6-5.45 4.29-1.56-1.56 2.14-1.17 3.51 1.75 6.23 3.9 3.51 4.09 3.51 5.26-.58.58-2.34 1.75-4.29 2.73-4.29 2.34 0 2.14 3.31-.19 4.87-3.12 1.95-2.34 6.43 1.56 8.57 4.68 2.53 11.69.59 12.66-3.51.78-2.53.97-2.53 1.17.58.19 2.53 1.17 3.12 3.7 2.14 3.9-1.75 14.02-2.92 14.02-1.75 0 4.09-5.06 7.79-9.54 7.01-4.48-.97-4.87-.78-2.34 2.34 1.56 1.95 4.09 2.73 6.23 2.14 2.14-.78 7.21-1.56 11.3-1.95 6.82-.58 7.6-.2 8.57 4.48.58 3.31 0 5.84-1.56 6.82-4.29 2.34.78 13.44 5.45 11.88 1.95-.58 4.68 0 6.23 1.17 2.34 1.95 3.9 1.75 7.21-.39 5.65-3.7 15.19-6.04 15.19-3.7 0 .78-2.73 2.14-6.04 2.92-5.06.97-5.84 1.95-5.06 5.26.58 2.34 0 4.29-1.75 5.06-4.09 1.56-3.31 4.48.97 4.48 4.29 0 16.36 9.54 12.46 9.74-1.36 0-2.53 1.75-2.53 3.9 0 2.14-.97 3.9-1.95 3.9-1.17 0-3.12 2.14-4.29 4.87-1.95 4.29-1.36 5.65 6.43 13.63 4.67 4.87 10.32 12.46 12.46 16.75 2.73 5.45 6.43 9.35 11.69 12.08 4.29 2.14 9.15 4.68 10.71 5.65 1.56.78 4.29 2.14 5.84 2.73 1.56.58 5.26 2.34 7.99 3.7 2.73 1.56 6.82 2.14 9.15 1.56 5.06-1.17 5.84 3.51 1.36 7.21-3.9 3.31-3.7 4.87 1.95 10.91 5.45 5.84 6.23 17.14 1.56 22.59-1.56 1.75-2.34 4.09-1.75 5.26.78.97-.58 2.34-2.73 3.12-6.43 2.14-4.48 7.6 4.87 13.44 4.87 3.12 8.76 6.23 8.76 7.01s2.34 2.53 5.06 3.89c6.43 3.51 11.88 14.22 15.19 30.58 1.75 7.79 4.29 14.02 6.23 15.58 3.12 2.34 3.12 2.53.19 2.53-4.48 0-8.57-7.01-11.1-19.09-1.95-8.57-3.9-11.49-11.88-18.5-5.26-4.48-9.54-9.35-9.54-10.91 0-2.14-.58-2.14-2.92-.19-1.75 1.36-2.92 5.65-2.92 10.52 0 7.01-3.9 44.99-6.82 67.97l-1.17 8.18 2.92-6.23c3.51-7.6 5.65-7.98 9.74-2.14 4.48 6.23 3.9 7.99-2.53 6.82-5.06-.97-5.65-.59-7.6 6.04-1.17 3.89-2.53 12.46-2.92 19.09-.58 6.43-3.31 24.35-6.23 39.93-7.01 37.2-15.39 56.29-24.74 56.29-5.06 0-3.51 4.67 1.95 5.45 2.34.39 4.29 1.95 4.29 3.5 0 3.31 2.34 3.51 5.06.78 2.53-2.53 12.46.78 12.46 4.09 0 1.17-1.36 5.26-3.31 8.96-2.73 5.84-2.73 7.01-.39 8.57 4.09 2.53 5.06 2.14 6.62-2.53.97-3.31 1.56-3.7 2.14-1.56 1.36 4.29 27.07 14.22 32.92 12.85 2.73-.78 4.87-.58 4.87.39s3.12 5.06 6.82 9.35c5.06 5.46 7.4 7.01 8.37 5.07.97-1.36 3.12-1.95 4.87-1.36 1.75.78 4.68.39 6.62-.58 3.9-2.34 12.46 1.56 18.89 8.76 3.7 4.09 4.87 4.29 12.66 2.53 6.04-1.56 9.15-1.36 11.1.19 1.95 1.56 3.51 1.75 5.26 0 1.56-1.17 3.31-1.36 4.09-.58s5.45 1.36 10.13 1.36c8.37.19 8.57-.19 7.6-4.87-.58-2.73 0-6.43 1.36-8.18 2.34-3.12 3.12-3.12 10.13.58 4.29 1.95 10.13 3.7 13.05 3.7 3.51 0 6.23 1.36 7.6 3.7 1.56 3.12 3.31 3.7 8.57 2.73 6.04-.97 7.01-.39 9.93 5.26 1.75 3.31 3.31 9.54 3.31 13.83 0 6.43.78 7.6 4.28 7.6 2.34 0 6.04-1.36 8.38-2.92s5.84-2.34 7.79-1.75c10.71 3.51 14.02 5.26 14.8 8.76 1.17 4.48 8.76 5.07 10.32.78 1.75-4.29 14.8-3.7 20.45.58 6.23 4.87 16.75 4.87 17.92 0 .59-1.95 2.73-3.51 4.67-3.51 1.95 0 4.48-.78 5.65-1.75 2.73-2.53 14.22-4.09 15.38-2.14 1.56 2.53 6.82 2.53 6.82 0 0-.97-1.75-3.31-3.9-5.26-3.12-3.12-3.7-6.62-4.09-24.15-.39-26.1 2.92-33.89 18.5-46.16 3.51-2.73 7.01-3.89 9.35-3.12 2.53.78 4.87-.58 7.6-3.9 2.33-2.92 6.82-6.62 10.13-8.37 3.51-1.56 8.38-5.06 10.91-7.79 2.53-2.53 6.82-5.06 9.35-5.65 5.26-1.36 11.1.39 9.35 2.92-1.95 3.12 3.51 5.07 17.53 6.04 12.66.97 13.63 1.36 13.44 5.26 0 3.7.97 4.48 6.23 4.48 3.51 0 7.79.58 9.74 1.36 2.53.97 3.12.58 2.34-1.75-1.36-3.31 1.75-7.4 5.65-7.4 1.36 0 3.7 2.34 4.87 5.06 2.14 4.67 3.12 4.87 13.05 4.29l10.91-.58v6.43c0 5.65.39 6.23 6.23 6.23 3.31 0 6.82.97 7.4 1.95.78 1.17 2.34 1.95 3.5 1.56 2.53-.39 14.22 6.43 14.8 8.57 0 .97.58 1.56 1.17 1.56h3.12c.97 0 1.36-.97.78-1.95-1.36-2.14 5.45-2.73 7.4-.58 2.34 2.14 11.1 2.34 11.1.19 0-1.36 2.53-1.56 6.62-.97 4.87.78 7.01.2 7.79-1.75.58-1.56 2.73-2.73 4.67-2.73 1.95 0 4.29-.58 5.07-1.56.78-.78 3.31-1.36 5.45-1.36 2.73 0 4.29-1.56 4.87-4.67.39-3.31-.2-4.28-2.34-3.31-4.29 1.56-3.5-2.14.78-4.67 2.14-.97 4.28-3.51 4.87-5.45.58-1.95 4.09-4.29 7.59-5.26 4.29-1.36 6.43-3.31 6.82-6.43.39-2.34 1.56-4.29 2.53-4.29 3.51 0 4.68-.39 7.01-2.34 1.36-1.17 2.53-1.36 2.73-.39s.78-.19 1.56-2.73c1.17-4.48 3.7-6.43 18.7-13.63 6.62-3.12 7.79-4.48 7.21-8.96-.58-3.5.78-6.82 3.9-9.74 6.82-6.62 9.54-12.46 8.18-17.72-.97-4.09-1.95-4.67-6.43-3.7-2.73.78-6.82 2.14-8.96 3.31s-4.09 1.95-4.29 1.56c-2.14-1.56-23.37-11.88-24.93-11.88-3.51-.2-10.91-13.83-9.54-17.92.59-1.95 0-4.87-1.17-6.43-1.75-2.14-1.56-3.9 1.75-7.99 2.14-2.73 3.51-5.84 2.92-6.82-.39-.97.78-2.73 2.92-3.9 2.92-1.95 3.31-3.51 2.14-6.82-.97-2.34-1.17-4.87-.39-5.65 1.75-1.75-3.9-4.87-7.4-3.9-4.48 1.17-11.69-5.84-11.69-11.49 0-3.12-1.17-5.06-2.92-5.06-1.56 0-2.92-.78-2.92-1.75s-.58-3.12-1.17-4.67c-1.17-3.12 3.51-5.46 13.05-6.04 2.92-.19 7.01-1.75 8.96-3.5s5.65-3.7 7.98-4.48c3.31-.97 4.29-2.34 3.7-4.87-.58-1.95.19-5.26 1.75-7.4 2.34-3.31 1.95-4.29-4.09-8.96-4.09-3.31-7.21-7.79-7.79-11.69-.78-4.09-3.12-7.21-7.01-9.35-4.29-2.53-5.65-4.67-5.65-9.35 0-3.9.97-5.84 2.92-5.84 4.87 0 12.47-4.29 13.24-7.6.97-4.09-4.67-13.83-7.79-13.83-1.36 0-2.53-1.75-2.53-3.9 0-2.53-1.36-3.9-3.9-3.9-3.7 0-3.9-.39-.97-7.01 2.34-5.65 2.53-7.79.58-10.13-1.36-1.56-2.34-4.68-2.53-7.01 0-3.31-1.36-4.29-7.79-4.67-8.57-.78-21.62 2.73-26.68 7.01-3.9 3.31-3.7 10.13.39 10.13 5.45.19-10.13 11.1-15.97 11.3-4.87.19-5.65-.58-5.06-4.09.39-2.73 2.14-4.48 4.67-4.87 4.87-.78 7.99-11.1 4.48-15.19-1.36-1.75-1.56-4.67-.59-7.98.78-3.12 1.17-6.23.97-7.21-.58-2.34 5.26-8.57 14.41-15.19 6.82-5.06 7.79-6.62 7.98-13.83 0-7.01.97-8.57 5.84-11.1 7.4-3.9 28.05-24.35 28.05-27.85 0-1.56 1.75-3.31 3.9-3.9 5.84-1.56 4.67-4.87-2.14-5.65l-5.84-.58 3.9-4.29c2.33-2.34 4.09-5.26 4.09-6.43 0-3.31 10.71-2.14 14.02 1.75 2.53 2.92 4.48 3.31 9.54 2.34 3.9-.97 6.43-2.53 6.04-4.09-.39-1.36.58-1.95 2.34-1.36 1.75.78 3.12-.58 3.9-3.7.78-2.53 2.14-4.67 3.31-4.67 1.36 0 .97-1.95-.97-4.68-2.73-4.48-2.73-6.04.78-19.87 2.73-10.32 3.31-15.78 1.95-17.33-2.14-2.53-1.56-5.45 4.09-17.73 3.9-8.18 9.15-25.32 10.52-33.69.39-2.53 2.92-6.82 5.65-9.74s5.06-6.23 5.06-7.4c0-1.36 1.75-2.92 4.09-3.51 2.14-.78 5.26-4.29 6.82-7.79 1.36-3.7 3.7-7.21 4.87-7.79 3.51-2.14-16.17-10.13-25.9-10.32-10.91-.39-18.7-3.12-20.25-7.01-1.56-4.09-6.62-5.45-9.93-2.73-1.56 1.17-7.01 2.34-11.88 2.34-7.21.2-9.54-.58-11.1-3.7-2.34-4.48-13.05-6.82-12.27-2.53.39 1.36-.58 2.53-1.75 2.34-7.59-.58-8.57-.97-7.4-2.73.58-1.17.19-1.95-.78-1.95-1.17 0-2.14-1.17-2.14-2.53 0-1.56-1.75-4.29-3.9-6.23-2.14-1.95-3.51-4.09-3.12-4.68.58-.78-.59-3.31-2.53-5.84-4.48-5.84-18.7-7.98-32.72-5.06-4.29.97-6.43.58-6.43-.78 0-1.17-1.36-2.14-3.12-2.14-1.56 0-4.29-1.17-5.65-2.73-2.73-2.53-9.74-1.95-22.79 1.95-2.34.58-3.31-.39-3.9-3.51-.39-2.53-2.53-5.26-4.87-6.43-2.53-.97-4.48-2.92-4.48-4.29 0-1.36-1.75-2.53-3.9-2.53-2.14 0-5.45-1.56-7.4-3.51-6.23-5.65-11.49-7.99-15.97-6.82-4.29 1.17-4.48.78-3.31-5.84.78-5.46.39-7.6-1.95-8.96-2.92-1.56-2.92-2.53-.19-10.71 2.53-7.79 2.53-8.96.19-8.96-3.7 0-9.35 5.65-9.35 9.54 0 1.75-3.31 4.67-7.6 6.62-13.63 6.43-37.59.19-27.46-7.21 3.12-2.14 3.12-2.73.19-5.45-3.5-3.7-4.09-8.57-1.17-10.32 2.53-1.56 2.53-5.06.19-4.48-.97.39-3.12-.97-4.48-3.12-3.12-4.09-22.98-6.23-25.12-2.73-2.14 3.51-5.65-.39-5.65-6.04 0-6.04-3.12-9.93-8.18-9.93-1.95 0-3.51-.97-3.51-2.14 0-1.56-.97-1.36-2.92.2-4.67 3.9-12.66-.58-13.05-7.21 0-3.12-.39-6.43-.39-7.79-.39-4.09-7.6-10.32-12.08-10.32-2.53 0-6.23 1.75-8.38 4.09-2.92 3.31-4.48 3.7-7.79 1.95-2.14-1.17-5.07-3.7-6.43-5.65s-4.09-4.09-5.84-4.87c-2.53-.78-3.51-3.31-3.51-7.99.12-10.15-4.56-19.3-8.07-15.8zm179.97 725.31c1.75 2.92 2.92 3.31 4.87 1.75s2.53-1.17 2.53.97c0 2.92-5.45 7.21-9.15 7.21-1.56 0-6.43-9.15-6.43-12.08 0-3.11 5.84-1.55 8.18 2.15z"/></svg>